<svg xmlns="http://www.w3.org/2000/svg" width="184.134" height="44.146" viewBox="0 0 184.134 44.146">
  <g id="logo" transform="translate(0 -28.927)">
    <g id="Group_723" data-name="Group 723" transform="translate(0 180.927)">
      <rect id="rectangle" width="24.009" height="30.592" transform="translate(12.779 -147.74)" fill="#fff"/>
      <path id="Path_530" data-name="Path 530" d="M13.068-76H0v5.574c0,9.362,7.582,16.5,16.934,16.5h15.6a4.259,4.259,0,0,0,4.256-4.262v-5.352H29.535c-7.52,0-14.945-5.322-16.468-12.459" transform="translate(0 -53.927)" fill="#24c1ce"/>
      <path id="Path_531" data-name="Path 531" d="M12.779-132.6c0-8.446,8.32-15.136,16.756-15.136h7.253A4.259,4.259,0,0,0,32.532-152h-15.6C7.582-152,0-144.864,0-135.5v5.574H13.068a12.817,12.817,0,0,1-.288-2.677" fill="#3dd0ad"/>
      <path id="Path_532" data-name="Path 532" d="M81.206-124a3.872,3.872,0,0,0-3.872,3.872,3.873,3.873,0,0,0,3.872,3.872,3.873,3.873,0,0,0,3.872-3.872A3.872,3.872,0,0,0,81.206-124" transform="translate(-54.873 -19.868)" fill="#404953"/>
      <path id="Path_533" data-name="Path 533" d="M82.495-120a1.163,1.163,0,0,0-1.162,1.161,1.164,1.164,0,0,0,1.162,1.163,1.164,1.164,0,0,0,1.162-1.163A1.163,1.163,0,0,0,82.495-120" transform="translate(-57.711 -22.706)" fill="#fff"/>
      <path id="Path_534" data-name="Path 534" d="M74.666-84.9H85.122V-88H74.666Z" transform="translate(-52.981 -45.412)" fill="#404953"/>
      <path id="Path_535" data-name="Path 535" d="M14.542-89.333a3.875,3.875,0,0,0-3.872,3.873,3.872,3.872,0,0,0,3.872,3.872,3.873,3.873,0,0,0,3.872-3.872,3.874,3.874,0,0,0-3.872-3.873" transform="translate(-7.571 -44.466)" fill="#ffda00"/>
      <path id="Path_536" data-name="Path 536" d="M139.05-131.92a18.472,18.472,0,0,0-12.383-5.413v19.246L139.05-105.7a18.537,18.537,0,0,0,0-26.217m-12.383,19.758v9.206a13.3,13.3,0,0,0,6.863-2.343Z" transform="translate(-89.878 -10.407)" fill="#404953"/>
      <path id="Path_537" data-name="Path 537" d="M44.288-76H44v12.614a5.2,5.2,0,0,0,5.219,5.2l18.79-.07v-5.284H60.756c-7.52,0-14.945-5.322-16.468-12.459" transform="translate(-31.221 -53.927)" fill="#3a4287"/>
    </g>
    <g id="Group_794" data-name="Group 794" transform="translate(-35.922 -4)">
      <path id="Subtraction_10" data-name="Subtraction 10" d="M21039.98,35h-35a3.005,3.005,0,0,1-3-3l1.59-11.5-3.566-3.5,4.471-3.07L21005.977,3a3,3,0,0,1,3-3h35a3.005,3.005,0,0,1,3,3l-.275,2h-3.033l.275-2h-34.971v.206l-1.717,12.458-2.557,1.754,2.039,2L21005.01,32h34.971V31.8l.246-1.8h3.031l-.277,2A3,3,0,0,1,21039.98,35Z" transform="translate(-20900.979 39)" fill="#0dc5cf"/>
      <path id="Path_7345" data-name="Path 7345" d="M3.164-14.812h3.08l-.028,1.736a5.985,5.985,0,0,1,4.424-2.156A4.053,4.053,0,0,1,14-13.72a6.726,6.726,0,0,1,1.2,4.284,13.706,13.706,0,0,1-.8,4.606,8.584,8.584,0,0,1-2.562,3.752A6.722,6.722,0,0,1,7.336.42,8.623,8.623,0,0,1,4.592-.028L3.752,5.74.224,6.16ZM7.224-2.268a3.136,3.136,0,0,0,2.464-1.12A6.865,6.865,0,0,0,11.116-6.16a12.678,12.678,0,0,0,.448-3.332q0-3.052-2.156-3.052a3.166,3.166,0,0,0-1.722.5A7.381,7.381,0,0,0,6.1-10.64L5.012-2.66A6.666,6.666,0,0,0,7.224-2.268ZM23.3.42a5.761,5.761,0,0,1-4.41-1.652,6.438,6.438,0,0,1-1.554-4.592,12.422,12.422,0,0,1,.8-4.34,8.277,8.277,0,0,1,2.59-3.612,7.048,7.048,0,0,1,4.592-1.456,5.735,5.735,0,0,1,4.41,1.666,6.407,6.407,0,0,1,1.554,4.55,12.62,12.62,0,0,1-.784,4.34A8.267,8.267,0,0,1,27.916-1.05,7.047,7.047,0,0,1,23.3.42Zm.2-2.716a2.988,2.988,0,0,0,2.464-1.162,6.79,6.79,0,0,0,1.288-2.786,14.446,14.446,0,0,0,.364-3.164q0-3.108-2.492-3.108a3.017,3.017,0,0,0-2.464,1.134,6.693,6.693,0,0,0-1.3,2.73,13.465,13.465,0,0,0-.378,3.108Q20.972-2.3,23.492-2.3Z" transform="translate(109 63.532)" fill="#11b2bf"/>
      <path id="Path_7344" data-name="Path 7344" d="M14.672-11.284A4.351,4.351,0,0,1,12.026-7.14,20.055,20.055,0,0,1,5.124-5.4a2.418,2.418,0,0,0,2.66,2.632,5.26,5.26,0,0,0,1.834-.336,9.267,9.267,0,0,0,1.946-1.036l1.568,2.632A9.876,9.876,0,0,1,7.224.476,6.428,6.428,0,0,1,2.408-1.218,6.314,6.314,0,0,1,.756-5.824a12.058,12.058,0,0,1,.854-4.424,8.328,8.328,0,0,1,2.758-3.64,7.7,7.7,0,0,1,4.816-1.456A6.345,6.345,0,0,1,13.23-14.2,3.567,3.567,0,0,1,14.672-11.284ZM5.32-8.092A7.589,7.589,0,0,0,9.1-9.086a2.4,2.4,0,0,0,1.176-2,1.375,1.375,0,0,0-.336-.924A1.366,1.366,0,0,0,8.848-12.4a2.707,2.707,0,0,0-2.324,1.232A7.662,7.662,0,0,0,5.32-8.092ZM31.276-20.776,28.364,0H24.5l.028-2.128a6.511,6.511,0,0,1-1.89,1.89A4.569,4.569,0,0,1,20.1.476a4.091,4.091,0,0,1-3.486-1.582,7.2,7.2,0,0,1-1.19-4.41,14,14,0,0,1,.77-4.494,9.264,9.264,0,0,1,2.366-3.808,5.528,5.528,0,0,1,3.976-1.526,4.377,4.377,0,0,1,3.416,1.428l1.008-7.308Zm-7.784,8.652a2.479,2.479,0,0,0-2.086,1.078,6.76,6.76,0,0,0-1.134,2.6,13.726,13.726,0,0,0-.336,2.954,3.89,3.89,0,0,0,.42,2.1,1.37,1.37,0,0,0,1.2.616A2.36,2.36,0,0,0,23.2-3.5,10.454,10.454,0,0,0,24.78-5.516l.784-5.544a2.935,2.935,0,0,0-.924-.8A2.422,2.422,0,0,0,23.492-12.124Zm14.7-2.744L36.12,0H31.78l2.072-14.868Zm-1.708-2.8a2.3,2.3,0,0,1-1.68-.63,2.155,2.155,0,0,1-.644-1.61,2.623,2.623,0,0,1,.826-1.988,2.873,2.873,0,0,1,2.058-.784,2.33,2.33,0,0,1,1.68.616,2.109,2.109,0,0,1,.644,1.6,2.668,2.668,0,0,1-.826,2A2.845,2.845,0,0,1,36.484-17.668ZM44.94-4.928q-.056.5-.056.672a1.373,1.373,0,0,0,.266.938,1.022,1.022,0,0,0,.8.294,2.7,2.7,0,0,0,.77-.112,6.542,6.542,0,0,0,.91-.364L48.776-.616A7.536,7.536,0,0,1,46.788.2a8.35,8.35,0,0,1-2.072.28A4.244,4.244,0,0,1,41.58-.616a4.244,4.244,0,0,1-1.092-3.136,8.714,8.714,0,0,1,.084-1.176l.98-6.86H39.508l.42-3.08h2.24l.924-3.3,3.752-.42-.532,3.724h3.416l-.924,3.08H45.892ZM55.832.476A6.1,6.1,0,0,1,51.254-1.2a6.375,6.375,0,0,1-1.638-4.648,12.644,12.644,0,0,1,.812-4.466,7.978,7.978,0,0,1,2.674-3.6,7.669,7.669,0,0,1,4.8-1.428,6.109,6.109,0,0,1,4.564,1.68A6.227,6.227,0,0,1,64.12-9.1a12.758,12.758,0,0,1-.812,4.48A8.146,8.146,0,0,1,60.634-.98,7.567,7.567,0,0,1,55.832.476Zm.308-3.248A2.775,2.775,0,0,0,58.856-4.83,12.87,12.87,0,0,0,59.668-9.3a3.5,3.5,0,0,0-.518-2.128A1.84,1.84,0,0,0,57.6-12.1a2.8,2.8,0,0,0-2.73,2.072,12.281,12.281,0,0,0-.8,4.452,3.573,3.573,0,0,0,.5,2.128A1.832,1.832,0,0,0,56.14-2.772ZM75.572-15.288a5.207,5.207,0,0,1,1.484.224L75.8-10.808a5.429,5.429,0,0,0-1.232-.2A2.638,2.638,0,0,0,72.422-9.94,10.06,10.06,0,0,0,70.9-6.888L69.916,0h-4.34l2.072-14.868h3.78L71.372-12.1a6.394,6.394,0,0,1,1.862-2.366A3.845,3.845,0,0,1,75.572-15.288Z" transform="translate(143 63.532)" fill="#333939"/>
    </g>
  </g>
</svg>
